<?xml version="1.0" encoding="UTF-8" standalone="no"?>
<svg version="1.1" viewBox="0 0 48.000005 38.282681"
   xmlns="http://www.w3.org/2000/svg"
   xmlns:svg="http://www.w3.org/2000/svg">
   <g transform="matrix(0.04785335,0,0,0.04785335,-4.5959307,-9.57067)">
      <path d="m 1000,725 c 0,0 -115,275 -400,275 -285,0 -400,-275 -400,-275 0,0 205,50 395,50 190,0 405,-50 405,-50 z" />
      <path d="M 1065,425 C 855,360 690,200 600,200 c -90,0 -255,160 -465,225 -35,10 -50,50 -30,80 45,60 95,65 95,135 0,0 200,50 400,50 200,0 400,-50 400,-50 0,-70 50,-75 90,-140 20,-25 5,-65 -25,-75 z M 600,600 c -55,0 -100,-95 -100,-150 0,0 45,-50 100,-50 55,0 100,50 100,50 0,55 -45,150 -100,150 z" />
   </g>
</svg>
